<?xml version="1.0" encoding="UTF-8"?>
<svg width="240px" height="64px" viewBox="0 0 240 64" version="1.1" xmlns="http://www.w3.org/2000/svg" xmlns:xlink="http://www.w3.org/1999/xlink">
    <!-- Generator: sketchtool 52.2 (67145) - http://www.bohemiancoding.com/sketch -->
    <title>39B5414B-7219-4A3D-B38B-14AF6A13F792</title>
    <desc>Created with sketchtool.</desc>
    <defs>
        <linearGradient x1="50%" y1="2.51083815%" x2="50%" y2="97.0578938%" id="linearGradient-1">
            <stop stop-color="#09FFCD" offset="0%"></stop>
            <stop stop-color="#02A79C" offset="100%"></stop>
        </linearGradient>
    </defs>
    <g id="Click-2-Pay" stroke="none" stroke-width="1" fill="none" fill-rule="evenodd">
        <g id="Coupon---payment-premium-+-business" transform="translate(-591.000000, -675.000000)">
            <g id="button-copy" transform="translate(591.000000, 675.000000)">
                <g id="button-main-CTA-Copy">
                    <path d="M0,4.00348663 C0,1.79242202 1.79749238,0 3.99923847,0 L197.414894,0 L197.414894,59.9965134 C197.414894,62.207578 195.617401,64 193.415655,64 L3.99923847,64 C1.79052005,64 0,62.2046235 0,59.9965134 L0,4.00348663 Z" id="BG" fill="url(#linearGradient-1)"></path>
                    <path d="M221.198582,35.5555556 L221.198582,28.4444444 L214.931442,28.4444444 L214.931442,35.5555556 L208.664303,35.5555556 L208.664303,28.4444444 L214.931442,28.4444444 L214.931442,21.3333333 L208.664303,21.3333333 L202.397163,21.3333333 L202.397163,14.2222222 L202.397163,7.11111111 L196.130024,7.11111111 L196.130024,0 L189.862884,0 L189.862884,7.11111111 L183.595745,7.11111111 L183.595745,14.2222222 L183.595745,21.3333333 L183.595745,28.4444444 L183.595745,35.5555556 L183.595745,42.6666667 L183.595745,49.7777778 L183.595745,56.8888889 L183.595745,64 L189.862884,64 L196.130024,64 L202.397163,64 L208.664303,64 L214.931442,64 L221.198582,64 L227.465721,64 L233.732861,64 L240,64 L240,56.8888889 L240,49.7777778 L240,42.6666667 L233.732861,42.6666667 L233.732861,49.7777778 L233.732861,56.8888889 L227.465721,56.8888889 L227.465721,49.7777778 L227.465721,42.6666667 L233.732861,42.6666667 L233.732861,35.5555556 L240,35.5555556 L240,28.4444444 L233.732861,28.4444444 L227.465721,28.4444444 L227.465721,35.5555556 L221.198582,35.5555556 Z M190.005319,14.5454545 L196.414894,14.5454545 L196.414894,21.8181818 L190.005319,21.8181818 L190.005319,14.5454545 Z M220.771277,49.4545455 L214.361702,49.4545455 L214.361702,42.1818182 L220.771277,42.1818182 L220.771277,49.4545455 Z" id="Shape" fill="url(#linearGradient-1)" fill-rule="nonzero"></path>
                    <text id="12:24" font-family="AvenirNext-DemiBold, Avenir Next" font-size="24" font-weight="500" fill="#FFFFFF">
                        <tspan x="29.3017021" y="40">Start FREE trial</tspan>
                    </text>
                </g>
            </g>
        </g>
    </g>
</svg>